# xmcd CD database file
#
# Track frame offsets:
#	150
#	17575
#	34375
#	55300
#	76800
#	93175
#	108575
#	130000
#	142175
#	175000
#	190775
#	212725
#	227125
#	244200
#	260725
#	275675
#	290625
#	307125
#
# Disc length: 4365 seconds
#
# Revision: 3
# Processed by: cddbd v1.5.2PL0 Copyright (c) Steve Scherf et al.
# Submitted via: CDex 1.51
#
DISCID=0e110b12
DTITLE=Nena - Golden Stars Nena
DYEAR=1900
DGENRE=Blues
TTITLE0=99 Luftballons
TTITLE1=Das Land der Elefanten
TTITLE2=Eisbrecher
TTITLE3=Es regnet
TTITLE4=Es wird schon weitergehn
TTITLE5=Feuer und Flamme
TTITLE6=Haus der drei Sonnen
TTITLE7=Ich bleib im Bett
TTITLE8=Irgendwie, Irgendwo, Irgendwann
TTITLE9=Keine Langeweile
TTITLE10=Laﬂ mich Dein Pirat sein
TTITLE11=Leuchtturm
TTITLE12=Mondsong
TTITLE13=Nur getr‰umt
TTITLE14=Rette mich
TTITLE15=Tanz auf dem Vulkan
TTITLE16=Wunder gescheh'n
TTITLE17=? (Fragezeichen)
EXTD=
EXTT0=
EXTT1=
EXTT2=
EXTT3=
EXTT4=
EXTT5=
EXTT6=
EXTT7=
EXTT8=
EXTT9=
EXTT10=
EXTT11=
EXTT12=
EXTT13=
EXTT14=
EXTT15=
EXTT16=
EXTT17=
PLAYORDER=
